<svg width="27" height="27" viewBox="0 0 27 27" fill="none" xmlns="http://www.w3.org/2000/svg">
<path d="M10.2287 3.48322C10.8372 1.83893 13.1628 1.83893 13.7713 3.48322L15.8995 9.23466C16.0908 9.75162 16.4984 10.1592 17.0153 10.3505L22.7668 12.4787C24.4111 13.0872 24.4111 15.4128 22.7668 16.0213L17.0153 18.1495C16.4984 18.3408 16.0908 18.7484 15.8995 19.2653L13.7713 25.0168C13.1628 26.6611 10.8372 26.6611 10.2287 25.0168L8.1005 19.2653C7.90921 18.7484 7.50162 18.3408 6.98466 18.1495L1.23322 16.0213C-0.411073 15.4128 -0.411073 13.0872 1.23322 12.4787L6.98466 10.3505C7.50162 10.1592 7.90921 9.75162 8.1005 9.23466L10.2287 3.48322Z" fill="url(#paint0_linear_755_366)"/>
<path d="M10.2287 3.48322C10.8372 1.83893 13.1628 1.83893 13.7713 3.48322L15.8995 9.23466C16.0908 9.75162 16.4984 10.1592 17.0153 10.3505L22.7668 12.4787C24.4111 13.0872 24.4111 15.4128 22.7668 16.0213L17.0153 18.1495C16.4984 18.3408 16.0908 18.7484 15.8995 19.2653L13.7713 25.0168C13.1628 26.6611 10.8372 26.6611 10.2287 25.0168L8.1005 19.2653C7.90921 18.7484 7.50162 18.3408 6.98466 18.1495L1.23322 16.0213C-0.411073 15.4128 -0.411073 13.0872 1.23322 12.4787L6.98466 10.3505C7.50162 10.1592 7.90921 9.75162 8.1005 9.23466L10.2287 3.48322Z" fill="url(#paint1_linear_755_366)"/>
<path d="M10.6977 3.65674C11.145 2.44775 12.855 2.44775 13.3023 3.65674L15.4306 9.40818C15.6725 10.062 16.188 10.5775 16.8418 10.8194L22.5933 12.9477C23.8022 13.395 23.8022 15.105 22.5933 15.5523L16.8418 17.6806C16.188 17.9225 15.6725 18.438 15.4306 19.0918L13.3023 24.8433C12.855 26.0522 11.145 26.0522 10.6977 24.8433L8.56943 19.0918C8.32749 18.438 7.812 17.9225 7.15818 17.6806L1.40674 15.5523C0.197755 15.105 0.197755 13.395 1.40674 12.9477L7.15818 10.8194C7.812 10.5775 8.32749 10.062 8.56943 9.40818L10.6977 3.65674Z" stroke="url(#paint2_linear_755_366)" stroke-opacity="0.2"/>
<path d="M23.1642 1.21246C22.9361 0.595848 22.0639 0.595848 21.8358 1.21246L21.0377 3.36925C20.966 3.56311 20.8131 3.71595 20.6192 3.78769L18.4625 4.58577C17.8458 4.81394 17.8458 5.68606 18.4625 5.91423L20.6192 6.71231C20.8131 6.78405 20.966 6.93689 21.0377 7.13075L21.8358 9.28754C22.0639 9.90415 22.9361 9.90415 23.1642 9.28754L23.9623 7.13075C24.034 6.93689 24.1869 6.78405 24.3808 6.71231L26.5375 5.91423C27.1542 5.68606 27.1542 4.81394 26.5375 4.58577L24.3808 3.78769C24.1869 3.71595 24.034 3.56311 23.9623 3.36925L23.1642 1.21246Z" fill="url(#paint3_linear_755_366)"/>
<path d="M23.1642 1.21246C22.9361 0.595848 22.0639 0.595848 21.8358 1.21246L21.0377 3.36925C20.966 3.56311 20.8131 3.71595 20.6192 3.78769L18.4625 4.58577C17.8458 4.81394 17.8458 5.68606 18.4625 5.91423L20.6192 6.71231C20.8131 6.78405 20.966 6.93689 21.0377 7.13075L21.8358 9.28754C22.0639 9.90415 22.9361 9.90415 23.1642 9.28754L23.9623 7.13075C24.034 6.93689 24.1869 6.78405 24.3808 6.71231L26.5375 5.91423C27.1542 5.68606 27.1542 4.81394 26.5375 4.58577L24.3808 3.78769C24.1869 3.71595 24.034 3.56311 23.9623 3.36925L23.1642 1.21246Z" fill="url(#paint4_linear_755_366)"/>
<path d="M22.6953 1.38598C22.6282 1.20467 22.3718 1.20468 22.3047 1.38598L21.5066 3.54277C21.3842 3.87349 21.1235 4.13424 20.7928 4.25661L18.636 5.0547C18.4547 5.12179 18.4547 5.37821 18.636 5.4453L20.7928 6.24339C21.1235 6.36576 21.3842 6.62652 21.5066 6.95723L22.3047 9.11403C22.3718 9.29533 22.6282 9.29533 22.6953 9.11403L23.4934 6.95723C23.6158 6.62652 23.8765 6.36576 24.2072 6.24339L26.364 5.4453C26.5453 5.37821 26.5453 5.12179 26.364 5.0547L24.2072 4.25661C23.8765 4.13424 23.6158 3.87349 23.4934 3.54277L22.6953 1.38598Z" stroke="url(#paint5_linear_755_366)" stroke-opacity="0.2"/>
<defs>
<linearGradient id="paint0_linear_755_366" x1="-3.55412" y1="-1.3032" x2="21.6061" y2="31.6338" gradientUnits="userSpaceOnUse">
<stop stop-color="#E2DBFF"/>
<stop offset="1" stop-color="#FF99F8"/>
</linearGradient>
<linearGradient id="paint1_linear_755_366" x1="-20.5" y1="-22.75" x2="28" y2="31.25" gradientUnits="userSpaceOnUse">
<stop stop-color="#82FF83"/>
<stop offset="1"/>
</linearGradient>
<linearGradient id="paint2_linear_755_366" x1="11.9994" y1="-1.3032" x2="11.9994" y2="29.8039" gradientUnits="userSpaceOnUse">
<stop stop-color="white"/>
<stop offset="1" stop-color="#999999"/>
</linearGradient>
<linearGradient id="paint3_linear_755_366" x1="28.3328" y1="-0.582451" x2="18.8977" y2="11.7689" gradientUnits="userSpaceOnUse">
<stop stop-color="#E2DBFF"/>
<stop offset="1" stop-color="#FF99F8"/>
</linearGradient>
<linearGradient id="paint4_linear_755_366" x1="34.6875" y1="-8.625" x2="16.5" y2="11.625" gradientUnits="userSpaceOnUse">
<stop stop-color="#82FF83"/>
<stop offset="1"/>
</linearGradient>
<linearGradient id="paint5_linear_755_366" x1="22.5002" y1="-0.582451" x2="22.5002" y2="11.0827" gradientUnits="userSpaceOnUse">
<stop stop-color="white"/>
<stop offset="1" stop-color="#999999"/>
</linearGradient>
</defs>
</svg>
