<svg width="11" height="16" viewBox="0 0 11 16" fill="none" xmlns="http://www.w3.org/2000/svg">
<path d="M5.4988 0.5C4.28849 0.499728 3.11189 0.898686 2.15135 1.63504C1.19082 2.37139 0.49999 3.40402 0.185941 4.57287C-0.128107 5.74172 -0.0478383 6.98153 0.414307 8.10013C0.876452 9.21872 1.69466 10.1537 2.74213 10.76C3.19946 11.0253 3.48546 11.432 3.49813 11.842C3.50163 11.9518 3.5412 12.0574 3.61073 12.1425C3.68026 12.2276 3.77587 12.2874 3.8828 12.3127C4.11746 12.368 4.35613 12.4113 4.5988 12.4427C4.81413 12.47 4.9988 12.2973 4.9988 12.08V8.97267C4.78814 8.9495 4.57939 8.91141 4.37413 8.85867C4.31053 8.84229 4.25077 8.81356 4.19827 8.77409C4.14578 8.73463 4.10157 8.68521 4.06817 8.62866C4.03477 8.57211 4.01284 8.50953 4.00362 8.4445C3.99441 8.37947 3.99809 8.31327 4.01446 8.24967C4.03084 8.18606 4.05957 8.12631 4.09904 8.07381C4.1385 8.02131 4.18792 7.9771 4.24447 7.9437C4.30102 7.91031 4.3636 7.88837 4.42863 7.87916C4.49365 7.86994 4.55986 7.87363 4.62346 7.89C5.19764 8.03798 5.79996 8.03798 6.37413 7.89C6.43837 7.87149 6.50568 7.86605 6.57206 7.874C6.63844 7.88196 6.70256 7.90315 6.76061 7.93631C6.81866 7.96948 6.86947 8.01395 6.91003 8.0671C6.95059 8.12025 6.98009 8.18099 6.99676 8.24574C7.01344 8.31048 7.01696 8.37791 7.00712 8.44404C6.99728 8.51017 6.97428 8.57366 6.93948 8.63074C6.90467 8.68782 6.85877 8.73735 6.80449 8.77638C6.75021 8.81542 6.68866 8.84317 6.62346 8.858C6.41822 8.91097 6.20947 8.94929 5.9988 8.97267V12.0793C5.9988 12.2973 6.18346 12.47 6.3988 12.4427C6.64146 12.4113 6.88013 12.368 7.1148 12.3127C7.22172 12.2874 7.31734 12.2276 7.38687 12.1425C7.4564 12.0574 7.49597 11.9518 7.49946 11.842C7.5128 11.432 7.79813 11.0253 8.25546 10.76C9.30293 10.1537 10.1211 9.21872 10.5833 8.10013C11.0454 6.98153 11.1257 5.74172 10.8117 4.57287C10.4976 3.40402 9.80678 2.37139 8.84624 1.63504C7.88571 0.898686 6.7091 0.499728 5.4988 0.5Z" fill="#82FF83"/>
<path fill-rule="evenodd" clip-rule="evenodd" d="M3.5082 13.2691C3.52044 13.2045 3.54528 13.1431 3.58129 13.0881C3.6173 13.0332 3.66378 12.9859 3.71808 12.9489C3.77237 12.912 3.83342 12.8861 3.89772 12.8727C3.96203 12.8594 4.02834 12.8588 4.09287 12.8711C5.02235 13.0474 5.97671 13.0474 6.9062 12.8711C6.97151 12.8567 7.03904 12.8556 7.1048 12.8677C7.17055 12.8799 7.23319 12.9052 7.28902 12.942C7.34484 12.9788 7.39271 13.0265 7.42979 13.0821C7.46687 13.1378 7.49241 13.2003 7.5049 13.266C7.51739 13.3317 7.51657 13.3992 7.5025 13.4646C7.48842 13.53 7.46137 13.5919 7.42295 13.6466C7.38454 13.7014 7.33553 13.7478 7.27883 13.7833C7.22213 13.8188 7.1589 13.8425 7.09287 13.8531C6.04004 14.0529 4.95903 14.0529 3.9062 13.8531C3.77601 13.8283 3.66097 13.7529 3.58634 13.6434C3.51171 13.5339 3.48361 13.3993 3.5082 13.2691ZM4.0022 14.8984C4.00902 14.8331 4.02864 14.7698 4.05994 14.712C4.09124 14.6543 4.13361 14.6033 4.18462 14.5619C4.23563 14.5206 4.29429 14.4897 4.35725 14.471C4.4202 14.4523 4.48622 14.4462 4.55153 14.4531C5.18182 14.5189 5.81725 14.5189 6.44753 14.4531C6.57943 14.4393 6.71141 14.4784 6.81443 14.562C6.91745 14.6455 6.98307 14.7665 6.99687 14.8984C7.01066 15.0303 6.97149 15.1623 6.88797 15.2653C6.80445 15.3683 6.68343 15.4339 6.55153 15.4477C5.85211 15.521 5.14695 15.521 4.44753 15.4477C4.38222 15.4409 4.31889 15.4213 4.26116 15.39C4.20343 15.3587 4.15243 15.3163 4.11108 15.2653C4.06973 15.2143 4.03883 15.1556 4.02014 15.0927C4.00146 15.0297 3.99536 14.9637 4.0022 14.8984Z" fill="#82FF83"/>
</svg>
