<svg width="18" height="18" viewBox="0 0 18 18" fill="none" xmlns="http://www.w3.org/2000/svg">
<path d="M9.00425 9C8.82064 9 8.64455 9.07294 8.51472 9.20277C8.38488 9.33261 8.31194 9.5087 8.31194 9.69231V9.69785C8.31194 10.08 8.6221 10.3902 9.00425 10.3902H9.00979C9.1934 10.3902 9.36949 10.3172 9.49932 10.1874C9.62916 10.0575 9.7021 9.88146 9.7021 9.69785V9.69231C9.7021 9.5087 9.62916 9.33261 9.49932 9.20277C9.36949 9.07294 9.1934 9 9.00979 9H9.00425ZM9.00425 13.1548C8.82064 13.1548 8.64455 13.2277 8.51472 13.3575C8.38488 13.4874 8.31194 13.6635 8.31194 13.8471V13.8517C8.31194 14.2338 8.62117 14.544 9.00425 14.544H9.00887C9.19248 14.544 9.36857 14.4711 9.4984 14.3412C9.62823 14.2114 9.70117 14.0353 9.70117 13.8517V13.8471C9.70117 13.6635 9.62823 13.4874 9.4984 13.3575C9.36857 13.2277 9.19248 13.1548 9.00887 13.1548H9.00425ZM6.2341 13.8471C6.2341 13.6635 6.30704 13.4874 6.43687 13.3575C6.5667 13.2277 6.74279 13.1548 6.9264 13.1548H6.93194C7.11555 13.1548 7.29165 13.2277 7.42148 13.3575C7.55131 13.4874 7.62425 13.6635 7.62425 13.8471V13.8526C7.62425 14.0362 7.55131 14.2123 7.42148 14.3422C7.29165 14.472 7.11555 14.5449 6.93194 14.5449H6.9264C6.74279 14.5449 6.5667 14.472 6.43687 14.3422C6.30704 14.2123 6.2341 14.0362 6.2341 13.8526V13.8471ZM4.84948 13.1548C4.66587 13.1548 4.48978 13.2277 4.35995 13.3575C4.23011 13.4874 4.15717 13.6635 4.15717 13.8471V13.8517C4.15717 14.2338 4.46733 14.544 4.84948 14.544H4.8541C5.03771 14.544 5.2138 14.4711 5.34363 14.3412C5.47346 14.2114 5.5464 14.0353 5.5464 13.8517V13.8471C5.5464 13.6635 5.47346 13.4874 5.34363 13.3575C5.2138 13.2277 5.03771 13.1548 4.8541 13.1548H4.84948ZM10.3879 11.7729C10.3879 11.5893 10.4609 11.4132 10.5907 11.2834C10.7205 11.1536 10.8966 11.0806 11.0803 11.0806H11.0858C11.2694 11.0806 11.4455 11.1536 11.5753 11.2834C11.7052 11.4132 11.7781 11.5893 11.7781 11.7729V11.7775C11.7781 11.9612 11.7052 12.1372 11.5753 12.2671C11.4455 12.3969 11.2694 12.4698 11.0858 12.4698H11.0803C10.8966 12.4698 10.7205 12.3969 10.5907 12.2671C10.4609 12.1372 10.3879 11.9612 10.3879 11.7775V11.7729ZM11.0812 13.1548C10.8976 13.1548 10.7215 13.2277 10.5916 13.3575C10.4618 13.4874 10.3889 13.6635 10.3889 13.8471V13.8526C10.3889 14.2348 10.6981 14.5449 11.0812 14.5449H11.0858C11.2694 14.5449 11.4455 14.472 11.5753 14.3422C11.7052 14.2123 11.7781 14.0362 11.7781 13.8526V13.8471C11.7781 13.6635 11.7052 13.4874 11.5753 13.3575C11.4455 13.2277 11.2694 13.1548 11.0858 13.1548H11.0812ZM12.4658 11.7711C12.4658 11.5875 12.5387 11.4114 12.6686 11.2815C12.7984 11.1517 12.9745 11.0788 13.1581 11.0788H13.1627C13.3463 11.0788 13.5224 11.1517 13.6522 11.2815C13.7821 11.4114 13.855 11.5875 13.855 11.7711V11.7766C13.855 11.9602 13.7821 12.1363 13.6522 12.2662C13.5224 12.396 13.3463 12.4689 13.1627 12.4689H13.1581C12.9745 12.4689 12.7984 12.396 12.6686 12.2662C12.5387 12.1363 12.4658 11.9602 12.4658 11.7766V11.7711ZM10.387 9.69231C10.387 9.5087 10.46 9.33261 10.5898 9.20277C10.7196 9.07294 10.8957 9 11.0793 9H13.1562C13.3399 9 13.516 9.07294 13.6458 9.20277C13.7756 9.33261 13.8486 9.5087 13.8486 9.69231C13.8486 9.87592 13.7756 10.052 13.6458 10.1818C13.516 10.3117 13.3399 10.3846 13.1562 10.3846H11.0793C10.8957 10.3846 10.7196 10.3117 10.5898 10.1818C10.46 10.052 10.387 9.87592 10.387 9.69231ZM4.15625 11.7692C4.15625 11.5856 4.22919 11.4095 4.35902 11.2797C4.48886 11.1499 4.66495 11.0769 4.84856 11.0769H9.0024C9.18602 11.0769 9.36211 11.1499 9.49194 11.2797C9.62177 11.4095 9.69471 11.5856 9.69471 11.7692C9.69471 11.9528 9.62177 12.1289 9.49194 12.2588C9.36211 12.3886 9.18602 12.4615 9.0024 12.4615H4.84856C4.66495 12.4615 4.48886 12.3886 4.35902 12.2588C4.22919 12.1289 4.15625 11.9528 4.15625 11.7692Z" fill="#A9BBA1"/>
<path fill-rule="evenodd" clip-rule="evenodd" d="M14.5403 0.692308C14.5403 0.508696 14.4674 0.332605 14.3375 0.202772C14.2077 0.0729393 14.0316 0 13.848 0C13.6644 0 13.4883 0.0729393 13.3585 0.202772C13.2286 0.332605 13.1557 0.508696 13.1557 0.692308V2.07692H4.848V0.693231C4.848 0.509619 4.77506 0.333528 4.64523 0.203695C4.5154 0.0738625 4.3393 0.00092301 4.15569 0.00092301C3.97208 0.00092301 3.79599 0.0738625 3.66616 0.203695C3.53632 0.333528 3.46338 0.509619 3.46338 0.693231V2.07508H2.76923C2.03479 2.07508 1.33042 2.36683 0.811089 2.88617C0.291757 3.4055 0 4.10986 0 4.84431V15.2308C0 15.9652 0.291757 16.6696 0.811089 17.1889C1.33042 17.7082 2.03479 18 2.76923 18H15.2308C15.9652 18 16.6696 17.7082 17.1889 17.1889C17.7082 16.6696 18 15.9652 18 15.2308V4.84523C18 4.11079 17.7082 3.40642 17.1889 2.88709C16.6696 2.36776 15.9652 2.076 15.2308 2.076H14.5403V0.692308ZM1.38462 15.2308V8.30769C1.38462 7.94047 1.53049 7.58829 1.79016 7.32862C2.04983 7.06896 2.40201 6.92308 2.76923 6.92308H15.2308C15.598 6.92308 15.9502 7.06896 16.2098 7.32862C16.4695 7.58829 16.6154 7.94047 16.6154 8.30769V15.2308C16.6154 15.598 16.4695 15.9502 16.2098 16.2098C15.9502 16.4695 15.598 16.6154 15.2308 16.6154H2.76923C2.40201 16.6154 2.04983 16.4695 1.79016 16.2098C1.53049 15.9502 1.38462 15.598 1.38462 15.2308Z" fill="#A9BBA1"/>
</svg>
