<svg width="34" height="34" viewBox="0 0 34 34" fill="none" xmlns="http://www.w3.org/2000/svg">
<rect width="34" height="34" rx="10" fill="#4A5445" fill-opacity="0.4"/>
<rect x="0.5" y="0.5" width="33" height="33" rx="9.5" stroke="url(#paint0_linear_753_452)" stroke-opacity="0.05"/>
<g clip-path="url(#clip0_753_452)">
<path d="M7.83398 10.332C7.83398 8.95132 8.95327 7.83203 10.334 7.83203H13.6673C15.048 7.83203 16.1673 8.95132 16.1673 10.332V13.6654C16.1673 15.0461 15.048 16.1654 13.6673 16.1654H10.334C8.95327 16.1654 7.83398 15.0461 7.83398 13.6654V10.332Z" fill="#82FF83"/>
<path d="M7.83398 20.332C7.83398 18.9513 8.95327 17.832 10.334 17.832H13.6673C15.048 17.832 16.1673 18.9513 16.1673 20.332V23.6654C16.1673 25.0461 15.048 26.1654 13.6673 26.1654H10.334C8.95327 26.1654 7.83398 25.0461 7.83398 23.6654V20.332Z" fill="#82FF83"/>
<path d="M17.834 10.332C17.834 8.95132 18.9533 7.83203 20.334 7.83203H23.6673C25.048 7.83203 26.1673 8.95132 26.1673 10.332V13.6654C26.1673 15.0461 25.048 16.1654 23.6673 16.1654H20.334C18.9533 16.1654 17.834 15.0461 17.834 13.6654V10.332Z" fill="#82FF83"/>
<path d="M17.834 20.332C17.834 18.9513 18.9533 17.832 20.334 17.832H23.6673C25.048 17.832 26.1673 18.9513 26.1673 20.332V23.6654C26.1673 25.0461 25.048 26.1654 23.6673 26.1654H20.334C18.9533 26.1654 17.834 25.0461 17.834 23.6654V20.332Z" fill="#82FF83"/>
</g>
<defs>
<linearGradient id="paint0_linear_753_452" x1="17" y1="0" x2="17" y2="34" gradientUnits="userSpaceOnUse">
<stop stop-color="white"/>
<stop offset="1" stop-color="#999999"/>
</linearGradient>
<clipPath id="clip0_753_452">
<rect width="20" height="20" fill="white" transform="translate(7 7)"/>
</clipPath>
</defs>
</svg>
