<svg width="34" height="34" viewBox="0 0 34 34" fill="none" xmlns="http://www.w3.org/2000/svg">
<rect width="34" height="34" rx="10" fill="#4A5445" fill-opacity="0.4"/>
<rect x="0.5" y="0.5" width="33" height="33" rx="9.5" stroke="url(#paint0_linear_931_528)" stroke-opacity="0.05"/>
<g clip-path="url(#clip0_931_528)">
<path d="M7.83203 10.3359C7.83203 8.95523 8.95132 7.83594 10.332 7.83594H13.6654C15.0461 7.83594 16.1654 8.95523 16.1654 10.3359V13.6693C16.1654 15.05 15.0461 16.1693 13.6654 16.1693H10.332C8.95132 16.1693 7.83203 15.05 7.83203 13.6693V10.3359Z" fill="#999999"/>
<path d="M7.83203 20.3359C7.83203 18.9552 8.95132 17.8359 10.332 17.8359H13.6654C15.0461 17.8359 16.1654 18.9552 16.1654 20.3359V23.6693C16.1654 25.05 15.0461 26.1693 13.6654 26.1693H10.332C8.95132 26.1693 7.83203 25.05 7.83203 23.6693V20.3359Z" fill="#999999"/>
<path d="M17.832 10.3359C17.832 8.95523 18.9513 7.83594 20.332 7.83594H23.6654C25.0461 7.83594 26.1654 8.95523 26.1654 10.3359V13.6693C26.1654 15.05 25.0461 16.1693 23.6654 16.1693H20.332C18.9513 16.1693 17.832 15.05 17.832 13.6693V10.3359Z" fill="#999999"/>
<path d="M17.832 20.3359C17.832 18.9552 18.9513 17.8359 20.332 17.8359H23.6654C25.0461 17.8359 26.1654 18.9552 26.1654 20.3359V23.6693C26.1654 25.05 25.0461 26.1693 23.6654 26.1693H20.332C18.9513 26.1693 17.832 25.05 17.832 23.6693V20.3359Z" fill="#999999"/>
</g>
<defs>
<linearGradient id="paint0_linear_931_528" x1="17" y1="0" x2="17" y2="34" gradientUnits="userSpaceOnUse">
<stop stop-color="white"/>
<stop offset="1" stop-color="#999999"/>
</linearGradient>
<clipPath id="clip0_931_528">
<rect width="20" height="20" fill="white" transform="translate(7 7)"/>
</clipPath>
</defs>
</svg>
