<svg width="20" height="20" viewBox="0 0 20 20" fill="none" xmlns="http://www.w3.org/2000/svg">
<path d="M3.566 2.657C3.95195 2.55235 4.35011 2.49955 4.75 2.5H15.25C15.66 2.5 16.056 2.555 16.433 2.657C16.1837 2.15898 15.8006 1.7402 15.3268 1.44754C14.8529 1.15489 14.3069 0.999926 13.75 1H6.25C5.69288 0.999741 5.1467 1.15462 4.67265 1.44728C4.1986 1.73994 3.8154 2.15883 3.566 2.657ZM0.25 10C0.25 9.20435 0.566071 8.44129 1.12868 7.87868C1.69129 7.31607 2.45435 7 3.25 7H16.75C17.5456 7 18.3087 7.31607 18.8713 7.87868C19.4339 8.44129 19.75 9.20435 19.75 10V16C19.75 16.7956 19.4339 17.5587 18.8713 18.1213C18.3087 18.6839 17.5456 19 16.75 19H3.25C2.45435 19 1.69129 18.6839 1.12868 18.1213C0.566071 17.5587 0.25 16.7956 0.25 16V10ZM3.25 5.5C2.84 5.5 2.444 5.555 2.066 5.657C2.3154 5.15883 2.6986 4.73994 3.17265 4.44728C3.6467 4.15462 4.19288 3.99974 4.75 4H15.25C15.8069 3.99993 16.3529 4.15489 16.8268 4.44754C17.3006 4.7402 17.6837 5.15898 17.933 5.657C17.5474 5.55244 17.1496 5.49964 16.75 5.5H3.25Z" fill="#9C9C9C"/>
</svg>
