<svg width="16" height="18" viewBox="0 0 16 18" fill="none" xmlns="http://www.w3.org/2000/svg">
<path d="M16 3.89189C16 6.04101 12.4178 7.78378 8 7.78378C3.58222 7.78378 0 6.04101 0 3.89189C0 1.74277 3.58222 0 8 0C12.4178 0 16 1.74277 16 3.89189Z" fill="#B3B3B3"/>
<path d="M8 9.10136C10.3867 9.10136 12.6133 8.55762 14.2916 7.6084C14.9092 7.2661 15.477 6.8337 15.9778 6.32422C15.992 6.43649 16 6.55062 16 6.66568C16 9.16353 12.4178 11.1891 8 11.1891C3.58222 11.1891 0 9.16353 0 6.66568C0 6.55062 0.00800008 6.43649 0.0222223 6.32422C0.523038 6.83368 1.09081 7.26608 1.70844 7.6084C3.38578 8.55762 5.61333 9.10136 8 9.10136Z" fill="#B3B3B3"/>
<path d="M8 12.5076C10.3867 12.5076 12.6133 11.9639 14.2916 11.0147C14.9092 10.6724 15.477 10.24 15.9778 9.73047C15.992 9.84274 16 9.95687 16 10.0719C16 12.5698 12.4178 14.5953 8 14.5953C3.58222 14.5953 0 12.5698 0 10.0719C0 9.95687 0.00800008 9.84274 0.0222223 9.73047C0.52303 10.2399 1.09081 10.6723 1.70844 11.0147C3.38578 11.9639 5.61333 12.5076 8 12.5076Z" fill="#B3B3B3"/>
<path d="M8 15.9139C10.3867 15.9139 12.6133 15.3701 14.2916 14.4209C14.9092 14.0786 15.477 13.6462 15.9778 13.1367C15.992 13.249 16 13.3631 16 13.4782C16 15.976 12.4178 18.0016 8 18.0016C3.58222 18.0016 0 15.976 0 13.4782C0 13.3631 0.00800008 13.249 0.0222223 13.1367C0.52303 13.6462 1.09081 14.0786 1.70844 14.4209C3.38578 15.3701 5.61333 15.9139 8 15.9139Z" fill="#B3B3B3"/>
</svg>
