<svg width="20" height="20" viewBox="0 0 20 20" fill="none" xmlns="http://www.w3.org/2000/svg">
<path fill-rule="evenodd" clip-rule="evenodd" d="M4.6875 1.25H7.5C8.3288 1.25 9.12366 1.57924 9.70971 2.16529C10.2958 2.75134 10.625 3.5462 10.625 4.375V5.9375C10.625 6.80083 11.325 7.5 12.1875 7.5H13.75C14.5788 7.5 15.3737 7.82924 15.9597 8.41529C16.5458 9.00134 16.875 9.7962 16.875 10.625V17.1875C16.875 18.05 16.175 18.75 15.3125 18.75H4.6875C4.2731 18.75 3.87567 18.5854 3.58265 18.2924C3.28962 17.9993 3.125 17.6019 3.125 17.1875V2.8125C3.125 1.94917 3.825 1.25 4.6875 1.25ZM8.125 14.375C8.125 14.2092 8.05915 14.0503 7.94194 13.9331C7.82473 13.8158 7.66576 13.75 7.5 13.75C7.33424 13.75 7.17527 13.8158 7.05806 13.9331C6.94085 14.0503 6.875 14.2092 6.875 14.375V15C6.875 15.1658 6.94085 15.3247 7.05806 15.4419C7.17527 15.5592 7.33424 15.625 7.5 15.625C7.66576 15.625 7.82473 15.5592 7.94194 15.4419C8.05915 15.3247 8.125 15.1658 8.125 15V14.375ZM10 11.875C10.1658 11.875 10.3247 11.9408 10.4419 12.0581C10.5592 12.1753 10.625 12.3342 10.625 12.5V15C10.625 15.1658 10.5592 15.3247 10.4419 15.4419C10.3247 15.5592 10.1658 15.625 10 15.625C9.83424 15.625 9.67527 15.5592 9.55806 15.4419C9.44085 15.3247 9.375 15.1658 9.375 15V12.5C9.375 12.3342 9.44085 12.1753 9.55806 12.0581C9.67527 11.9408 9.83424 11.875 10 11.875ZM13.125 10.625C13.125 10.4592 13.0592 10.3003 12.9419 10.1831C12.8247 10.0658 12.6658 10 12.5 10C12.3342 10 12.1753 10.0658 12.0581 10.1831C11.9408 10.3003 11.875 10.4592 11.875 10.625V15C11.875 15.1658 11.9408 15.3247 12.0581 15.4419C12.1753 15.5592 12.3342 15.625 12.5 15.625C12.6658 15.625 12.8247 15.5592 12.9419 15.4419C13.0592 15.3247 13.125 15.1658 13.125 15V10.625Z" fill="#9C9C9C"/>
<path d="M11.8749 4.37339C11.8764 3.32217 11.4978 2.30586 10.8091 1.51172C12.2035 1.87836 13.4755 2.60878 14.495 3.62829C15.5145 4.6478 16.2449 5.91981 16.6116 7.31422C15.8174 6.62546 14.8011 6.24693 13.7499 6.24839H12.1874C12.1045 6.24839 12.025 6.21546 11.9664 6.15686C11.9078 6.09825 11.8749 6.01877 11.8749 5.93589V4.37339Z" fill="#9C9C9C"/>
</svg>
