<svg width="58" height="58" viewBox="0 0 58 58" fill="none" xmlns="http://www.w3.org/2000/svg">
<g filter="url(#filter0_d_931_2060)">
<path fill-rule="evenodd" clip-rule="evenodd" d="M22.6071 14.4857C29.4643 5.67381 40.1786 0 52.2143 0C52.6879 0 53.1421 0.188137 53.477 0.523024C53.8119 0.85791 54 1.31211 54 1.78571C54 13.8238 48.3262 24.5357 39.5143 31.3952C39.8808 33.691 39.7448 36.039 39.1157 38.2772C38.4866 40.5153 37.3795 42.5904 35.8706 44.3591C34.3617 46.1278 32.4871 47.5481 30.376 48.522C28.265 49.4959 25.9677 50.0001 23.6429 50C23.1693 50 22.7151 49.8119 22.3802 49.477C22.0453 49.1421 21.8571 48.6879 21.8571 48.2143V38.3786C19.5427 36.5509 17.4506 34.458 15.6238 32.1429H5.78571C5.31211 32.1429 4.85791 31.9547 4.52302 31.6198C4.18814 31.2849 4 30.8307 4 30.3571C3.99981 28.032 4.50413 25.7346 5.47815 23.6233C6.45217 21.512 7.8727 19.6373 9.64169 18.1284C11.4107 16.6195 13.486 15.5123 15.7245 14.8835C17.9629 14.2546 20.3112 14.1189 22.6071 14.4857ZM36.1429 12.5C34.7221 12.5 33.3594 13.0644 32.3548 14.0691C31.3501 15.0737 30.7857 16.4363 30.7857 17.8571C30.7857 19.2779 31.3501 20.6406 32.3548 21.6452C33.3594 22.6499 34.7221 23.2143 36.1429 23.2143C37.5637 23.2143 38.9263 22.6499 39.9309 21.6452C40.9356 20.6406 41.5 19.2779 41.5 17.8571C41.5 16.4363 40.9356 15.0737 39.9309 14.0691C38.9263 13.0644 37.5637 12.5 36.1429 12.5Z" fill="#82FF83"/>
<path d="M22.4055 15.7475L23.1516 15.8667L23.6156 15.2704C30.241 6.75624 40.5894 1.27778 52.2143 1.27778C52.349 1.27778 52.4782 1.33129 52.5735 1.42655C52.6687 1.5218 52.7222 1.651 52.7222 1.78571C52.7222 13.4129 47.2438 23.759 38.7294 30.3869L38.1334 30.8509L38.2525 31.5967C38.5898 33.7099 38.4646 35.8712 37.8856 37.9314C37.3065 39.9916 36.2874 41.9017 34.8985 43.5298C33.5096 45.1579 31.784 46.4653 29.8408 47.3617C27.8975 48.2582 25.783 48.7223 23.6429 48.7222H23.6429C23.5081 48.7222 23.3789 48.6687 23.2837 48.5735C23.1884 48.4782 23.1349 48.349 23.1349 48.2143V38.3786V37.7595L22.649 37.3758C20.413 35.61 18.3918 33.5881 16.6269 31.3513L16.2432 30.8651H15.6238H5.78571C5.651 30.8651 5.52181 30.8116 5.42655 30.7163C5.33129 30.621 5.27778 30.4919 5.27778 30.3571V30.357C5.2776 28.2168 5.74183 26.102 6.63841 24.1586C7.53499 22.2152 8.84257 20.4895 10.4709 19.1005C12.0993 17.7116 14.0096 16.6925 16.0701 16.1136C18.1305 15.5347 20.2921 15.4098 22.4055 15.7475ZM36.1429 11.2222C34.3832 11.2222 32.6955 11.9213 31.4513 13.1655C30.207 14.4098 29.5079 16.0975 29.5079 17.8571C29.5079 19.6168 30.207 21.3045 31.4513 22.5487C32.6955 23.793 34.3832 24.4921 36.1429 24.4921C37.9025 24.4921 39.5902 23.793 40.8345 22.5487C42.0787 21.3045 42.7778 19.6168 42.7778 17.8571C42.7778 16.0975 42.0787 14.4098 40.8345 13.1655C39.5902 11.9213 37.9025 11.2222 36.1429 11.2222Z" stroke="url(#paint0_linear_931_2060)" stroke-opacity="0.2" stroke-width="2.55556"/>
<path d="M14.1685 36.2186C14.3566 36.0783 14.5152 35.9024 14.6353 35.7009C14.7554 35.4994 14.8346 35.2762 14.8684 35.044C14.9022 34.8119 14.89 34.5753 14.8324 34.3479C14.7748 34.1205 14.673 33.9066 14.5328 33.7186C14.3925 33.5305 14.2166 33.3719 14.0151 33.2518C13.8136 33.1317 13.5904 33.0525 13.3582 33.0187C13.1261 32.9848 12.8895 32.9971 12.6621 33.0547C12.4347 33.1122 12.2209 33.2141 12.0328 33.3543C10.2063 34.7129 8.78614 36.5451 7.92584 38.6526C7.06554 40.7601 6.79788 43.0628 7.15183 45.3114C7.20939 45.686 7.3846 46.0325 7.65212 46.3008C7.91963 46.5692 8.26558 46.7455 8.63993 46.8043C10.8888 47.158 13.1916 46.89 15.2991 46.0292C17.4067 45.1685 19.2387 43.7478 20.5971 41.921C20.7418 41.7334 20.8478 41.5189 20.9088 41.29C20.9699 41.061 20.9847 40.8222 20.9525 40.5875C20.9204 40.3527 20.8418 40.1268 20.7214 39.9227C20.601 39.7186 20.4412 39.5405 20.2514 39.3988C20.0615 39.2571 19.8453 39.1546 19.6154 39.0973C19.3855 39.04 19.1465 39.029 18.9123 39.065C18.6781 39.1009 18.4534 39.1831 18.2513 39.3068C18.0493 39.4305 17.8738 39.5931 17.7352 39.7852C16.9048 40.9019 15.8246 41.8087 14.581 42.433C13.3373 43.0573 11.9648 43.3818 10.5733 43.3805C10.5733 40.4519 11.9828 37.8495 14.1685 36.2186Z" fill="#F47A00"/>
<path d="M13.4047 35.1942L13.4043 35.1945C10.9089 37.0565 9.29548 40.032 9.29548 43.3805V44.6571L10.5721 44.6583C12.1631 44.6598 13.7323 44.2888 15.1542 43.575C16.5762 42.8612 17.8112 41.8244 18.7605 40.5477L18.766 40.5403L18.7714 40.5328C18.8109 40.4782 18.8608 40.4319 18.9183 40.3967C18.9757 40.3615 19.0397 40.3382 19.1063 40.3279C19.1729 40.3177 19.2409 40.3208 19.3063 40.3371L19.6154 39.0973L19.3063 40.3371C19.3716 40.3534 19.4331 40.3826 19.4872 40.4229C19.5412 40.4632 19.5866 40.5139 19.6209 40.5719C19.6551 40.63 19.6774 40.6942 19.6866 40.761C19.6957 40.8278 19.6915 40.8957 19.6742 40.9608C19.6568 41.0259 19.6267 41.0869 19.5855 41.1403L19.5785 41.1494L19.5717 41.1585C18.3524 42.7984 16.7078 44.0737 14.816 44.8463C12.9242 45.6189 10.8571 45.8595 8.83844 45.542L8.83806 45.542C8.73158 45.5253 8.63318 45.4751 8.55708 45.3988C8.48099 45.3224 8.43115 45.2239 8.41479 45.1173L8.41407 45.1128C8.09635 43.0943 8.33661 41.0273 9.10885 39.1355C9.88109 37.2437 11.1559 35.5991 12.7954 34.3795L12.7966 34.3787C12.8501 34.3387 12.911 34.3097 12.9758 34.2933C13.0405 34.2769 13.1079 34.2735 13.174 34.2831C13.2401 34.2927 13.3036 34.3153 13.361 34.3495C13.4184 34.3837 13.4685 34.4288 13.5084 34.4824C13.5483 34.5359 13.5773 34.5968 13.5937 34.6616C13.6101 34.7263 13.6136 34.7937 13.604 34.8598C13.5944 34.9259 13.5718 34.9894 13.5376 35.0468L14.6353 35.7009L13.5376 35.0468C13.5034 35.1042 13.4582 35.1543 13.4047 35.1942Z" stroke="url(#paint1_linear_931_2060)" stroke-opacity="0.2" stroke-width="2.55556"/>
</g>
<defs>
<filter id="filter0_d_931_2060" x="0" y="0" width="58" height="58" filterUnits="userSpaceOnUse" color-interpolation-filters="sRGB">
<feFlood flood-opacity="0" result="BackgroundImageFix"/>
<feColorMatrix in="SourceAlpha" type="matrix" values="0 0 0 0 0 0 0 0 0 0 0 0 0 0 0 0 0 0 127 0" result="hardAlpha"/>
<feOffset dy="4"/>
<feGaussianBlur stdDeviation="2"/>
<feComposite in2="hardAlpha" operator="out"/>
<feColorMatrix type="matrix" values="0 0 0 0 0 0 0 0 0 0 0 0 0 0 0 0 0 0 0.25 0"/>
<feBlend mode="normal" in2="BackgroundImageFix" result="effect1_dropShadow_931_2060"/>
<feBlend mode="normal" in="SourceGraphic" in2="effect1_dropShadow_931_2060" result="shape"/>
</filter>
<linearGradient id="paint0_linear_931_2060" x1="28.9988" y1="-7.40251" x2="28.9988" y2="57.404" gradientUnits="userSpaceOnUse">
<stop stop-color="white"/>
<stop offset="1" stop-color="#999999"/>
</linearGradient>
<linearGradient id="paint1_linear_931_2060" x1="13.9842" y1="30.9338" x2="13.9842" y2="49.0225" gradientUnits="userSpaceOnUse">
<stop stop-color="white"/>
<stop offset="1" stop-color="#999999"/>
</linearGradient>
</defs>
</svg>
