<svg width="20" height="20" viewBox="0 0 20 20" fill="none" xmlns="http://www.w3.org/2000/svg">
<path d="M10 1.76816e-07C8.45996 -0.000345887 6.9628 0.507304 5.74058 1.44427C4.51835 2.38123 3.63931 3.69519 3.23971 5.18248C2.8401 6.66978 2.94224 8.24736 3.53029 9.67071C4.11834 11.0941 5.15947 12.2837 6.4923 13.0552C7.07423 13.3929 7.43815 13.9103 7.45427 14.432C7.45872 14.5718 7.50907 14.7061 7.59754 14.8144C7.68602 14.9226 7.80768 14.9987 7.94374 15.0309C8.24234 15.1013 8.54602 15.1565 8.8548 15.1963C9.1288 15.2311 9.36378 15.0114 9.36378 14.7349V10.781C9.09573 10.7515 8.83011 10.703 8.56893 10.6359C8.488 10.6151 8.41196 10.5785 8.34516 10.5283C8.27836 10.4781 8.22211 10.4152 8.17961 10.3432C8.13711 10.2713 8.1092 10.1917 8.09748 10.1089C8.08575 10.0262 8.09044 9.94192 8.11127 9.86099C8.13211 9.78006 8.16867 9.70402 8.21889 9.63723C8.26911 9.57043 8.33199 9.51417 8.40395 9.47167C8.47591 9.42918 8.55553 9.40127 8.63827 9.38954C8.72102 9.37782 8.80526 9.38251 8.88619 9.40334C9.61679 9.59163 10.3832 9.59163 11.1138 9.40334C11.1956 9.37978 11.2812 9.37286 11.3657 9.38299C11.4501 9.39311 11.5317 9.42007 11.6056 9.46227C11.6794 9.50447 11.7441 9.56106 11.7957 9.62869C11.8473 9.69632 11.8849 9.77361 11.9061 9.85599C11.9273 9.93837 11.9318 10.0242 11.9193 10.1083C11.9067 10.1925 11.8775 10.2732 11.8332 10.3459C11.7889 10.4185 11.7305 10.4815 11.6614 10.5312C11.5924 10.5809 11.514 10.6162 11.4311 10.6351C11.1699 10.7025 10.9043 10.7512 10.6362 10.781V14.734C10.6362 15.0114 10.8712 15.2311 11.1452 15.1963C11.454 15.1565 11.7577 15.1013 12.0563 15.0309C12.1923 14.9987 12.314 14.9226 12.4025 14.8144C12.4909 14.7061 12.5413 14.5718 12.5457 14.432C12.5627 13.9103 12.9258 13.3929 13.5077 13.0552C14.8405 12.2837 15.8817 11.0941 16.4697 9.67071C17.0578 8.24736 17.1599 6.66978 16.7603 5.18248C16.3607 3.69519 15.4816 2.38123 14.2594 1.44427C13.0372 0.507304 11.54 -0.000345887 10 1.76816e-07Z" fill="#9C9C9C"/>
<path fill-rule="evenodd" clip-rule="evenodd" d="M7.46613 16.2479C7.48171 16.1658 7.51331 16.0875 7.55913 16.0176C7.60496 15.9477 7.6641 15.8876 7.73319 15.8405C7.80227 15.7935 7.87995 15.7605 7.96178 15.7435C8.04361 15.7265 8.12798 15.7258 8.21009 15.7414C9.3928 15.9658 10.6072 15.9658 11.7899 15.7414C11.873 15.7231 11.9589 15.7217 12.0426 15.7372C12.1263 15.7527 12.206 15.7848 12.277 15.8317C12.348 15.8786 12.4089 15.9392 12.4561 16.01C12.5033 16.0808 12.5358 16.1604 12.5517 16.244C12.5676 16.3276 12.5665 16.4135 12.5486 16.4967C12.5307 16.5799 12.4963 16.6586 12.4474 16.7283C12.3985 16.7979 12.3362 16.8571 12.264 16.9022C12.1919 16.9473 12.1114 16.9775 12.0274 16.991C10.6877 17.2452 9.31222 17.2452 7.97256 16.991C7.80691 16.9595 7.66052 16.8636 7.56556 16.7242C7.4706 16.5849 7.43484 16.4136 7.46613 16.2479ZM8.09472 18.3211C8.1034 18.238 8.12837 18.1574 8.16819 18.084C8.20802 18.0105 8.26193 17.9456 8.32684 17.893C8.39175 17.8404 8.46639 17.801 8.5465 17.7773C8.6266 17.7535 8.71061 17.7457 8.79371 17.7544C9.59571 17.8382 10.4043 17.8382 11.2063 17.7544C11.3741 17.7369 11.542 17.7867 11.6731 17.893C11.8042 17.9993 11.8877 18.1533 11.9053 18.3211C11.9228 18.4889 11.873 18.6569 11.7667 18.788C11.6604 18.919 11.5064 19.0025 11.3386 19.0201C10.4486 19.1133 9.55135 19.1133 8.66138 19.0201C8.57827 19.0114 8.49769 18.9864 8.42423 18.9466C8.35078 18.9068 8.28588 18.8529 8.23326 18.788C8.18064 18.7231 8.14132 18.6484 8.11755 18.5683C8.09378 18.4882 8.08602 18.4042 8.09472 18.3211Z" fill="#9C9C9C"/>
</svg>
