<svg width="34" height="34" viewBox="0 0 34 34" fill="none" xmlns="http://www.w3.org/2000/svg">
<rect width="34" height="34" rx="10" fill="#4A5445" fill-opacity="0.4"/>
<rect x="0.5" y="0.5" width="33" height="33" rx="9.5" stroke="url(#paint0_linear_5467_1150)" stroke-opacity="0.05"/>
<path d="M22.3125 8.875C21.45 8.875 20.75 9.575 20.75 10.4375V23.5625C20.75 24.425 21.45 25.125 22.3125 25.125H22.9375C23.8 25.125 24.5 24.425 24.5 23.5625V10.4375C24.5 9.57417 23.8 8.875 22.9375 8.875H22.3125ZM15.125 14.1875C15.125 13.3242 15.825 12.625 16.6875 12.625H17.3125C18.1758 12.625 18.875 13.325 18.875 14.1875V23.5625C18.875 24.425 18.175 25.125 17.3125 25.125H16.6875C16.2731 25.125 15.8757 24.9604 15.5826 24.6674C15.2896 24.3743 15.125 23.9769 15.125 23.5625V14.1875ZM9.5 17.9375C9.5 17.0742 10.2 16.375 11.0625 16.375H11.6875C12.5508 16.375 13.25 17.075 13.25 17.9375V23.5625C13.25 24.425 12.55 25.125 11.6875 25.125H11.0625C10.6481 25.125 10.2507 24.9604 9.95765 24.6674C9.66462 24.3743 9.5 23.9769 9.5 23.5625V17.9375Z" fill="#999999"/>
<defs>
<linearGradient id="paint0_linear_5467_1150" x1="17" y1="0" x2="17" y2="34" gradientUnits="userSpaceOnUse">
<stop stop-color="white"/>
<stop offset="1" stop-color="#999999"/>
</linearGradient>
</defs>
</svg>
